<?xml version="1.0" encoding="UTF-8" standalone="no"?><!-- Generator: Gravit.io --><svg xmlns="http://www.w3.org/2000/svg" xmlns:xlink="http://www.w3.org/1999/xlink" style="isolation:isolate" viewBox="0 0 1024 1024" width="1024pt" height="1024pt"><defs><clipPath id="_clipPath_Xa0JMGrjmkSZ7QITEeOaWFTOYnNOygDr"><rect width="1024" height="1024"/></clipPath></defs><g clip-path="url(#_clipPath_Xa0JMGrjmkSZ7QITEeOaWFTOYnNOygDr)"><rect width="1024" height="1024" style="fill:rgb(28,28,30)"/><g><path d=" M 773.928 746.356 L 571.875 315.419 C 589.518 299.264 600.602 276.055 600.602 250.305 C 600.603 201.614 560.99 162 512.297 162 C 463.604 162 423.992 201.614 423.992 250.305 C 423.992 275.851 434.907 298.886 452.307 315.024 L 250.076 746.343 C 247.616 751.235 240.97 764.681 240.97 774.839 C 240.97 802.725 269.885 823.54 331.964 840.34 C 383.575 854.309 447.511 862 512 862 C 576.489 862 640.425 854.309 692.036 840.34 C 754.115 823.54 783.03 802.725 783.03 774.839 C 783.028 772.281 783.026 764.526 773.928 746.356 Z  M 419.66 518.288 L 582.307 471.306 L 614.508 539.984 L 377.361 608.502 L 419.66 518.288 Z  M 345.336 676.807 L 638.892 591.99 L 671.089 660.66 L 303.039 767.012 L 345.336 676.807 Z  M 512.297 338.611 C 514.869 338.611 517.408 338.477 519.925 338.259 L 557.922 419.299 L 451.685 449.985 L 504.09 338.216 C 506.796 338.466 509.528 338.611 512.297 338.611 Z  M 511.998 805.268 C 470.389 805.268 433.667 802.02 402.742 797.254 L 695.474 712.665 L 722.047 769.342 C 697.091 782.848 621.377 805.268 511.998 805.268 Z " fill="rgb(10,132,255)"/></g></g></svg>